# xmcd
#
# Track frame offsets:
#	150
#	30348
#	54921
#	72519
#	128892
#	153090
#	176238
#	209736
#	222609
#	243357
#	262755
#	284703
#
# Disc length: 4096 seconds
# Revision: 0
# Processed by: cddbd v1.5.2PL0 Copyright (c) Steve Scherf et al.
# Submitted via: cdrLabel 7.1
#
DISCID=b70ffe0c
DTITLE=Chris Whitely and Jeff Lang  Dislocation Blues
DYEAR=2007
DGENRE=
TTITLE0=Track  1 - Changing of the Guard
TTITLE1=Track  2 - Dislocation Blues
TTITLE2=Track  3 - Forever in my Life
TTITLE3=Track  4 - Motion Bride
TTITLE4=Track  5 - Ravenswood
TTITLE5=Track  6 - Rocket House
TTITLE6=Track  7 - Stagger Lee
TTITLE7=Track  8 - The Road Leads Down
TTITLE8=Track  9 - Twelve Thousand Miles
TTITLE9=Track 10 - Underground
TTITLE10=Track 11 - Velocity Girl
TTITLE11=Track 12 - When I Paint My Masterpiece
EXTD=
EXTT0=
EXTT1=
EXTT2=
EXTT3=
EXTT4=
EXTT5=
EXTT6=
EXTT7=
EXTT8=
EXTT9=
EXTT10=
EXTT11=
PLAYORDER=
